<svg xmlns="http://www.w3.org/2000/svg" width="21.333" height="21.333" preserveAspectRatio="xMidYMid meet" version="1.0" viewBox="0 0 16 16"><g fill="#000" stroke="none"><path d="M84 135 c-4 -8 -14 -15 -23 -15 -14 0 -14 -2 -1 -10 8 -5 22 -7 31 -5 23 8 42 -20 35 -50 -5 -21 -12 -25 -46 -25 -34 0 -41 4 -46 25 -3 14 -3 32 0 40 3 9 2 13 -4 10 -15 -9 -12 -48 6 -73 10 -14 26 -22 44 -22 55 0 83 80 36 101 -14 7 -22 17 -19 25 3 8 2 14 -1 14 -4 0 -9 -7 -12 -15z" transform="translate(0.000000,16.000000) scale(0.100000,-0.100000)"/></g></svg>